<svg width="560" height="300" viewBox="0 0 560 300" fill="none" xmlns="http://www.w3.org/2000/svg">
<path d="M245.663 247.383C235.129 247.383 229.972 242.223 229.972 235.661C229.972 229.1 235.129 224 245.663 224C256.196 224 261.347 229.16 261.347 235.661C261.347 242.163 256.189 247.383 245.663 247.383ZM234.107 271.522V257.656L264.028 254.967V253.625L234.107 256.315V249.707L275.092 245.57V259.814L245.171 262.504V264.011L276.115 261.322V271.536H234.107V271.522ZM245.663 232.334C242.868 232.334 240.99 233.516 240.99 235.721C240.99 237.926 242.868 239.002 245.663 239.002C248.457 239.002 250.282 237.873 250.282 235.721C250.282 233.57 248.404 232.334 245.663 232.334ZM275.099 240.775V244.215L264.035 245.344V225.029H275.099V229.811L280.794 229.167V240.131L275.099 240.775Z" fill="#1F2823"/>
<path d="M284.796 270.606V225.726H314.664V235.349H295.807V242.661L310.363 241.425V250.723L295.807 252.117V259.376L316.217 257.171V267.112L284.789 270.606H284.796ZM318.912 272V250.391L312.254 251.141V240.177L318.912 239.427V225.022H329.976V269.849L318.912 272Z" fill="#1F2823"/>
<path d="M359.946 108C315.765 108 279.946 143.819 279.946 188H359.946V108Z" fill="#1F2823"/>
<path d="M280 28C235.819 28 200 63.8188 200 108C200 152.181 235.819 188 280 188V108H360C360 63.8188 324.181 28 280 28Z" fill="#1F2823"/>
</svg>
