<svg width="560" height="300" viewBox="0 0 560 300" fill="none" xmlns="http://www.w3.org/2000/svg">
<path d="M245.663 247.383C235.129 247.383 229.972 242.223 229.972 235.661C229.972 229.1 235.129 224 245.663 224C256.196 224 261.347 229.16 261.347 235.661C261.347 242.163 256.189 247.383 245.663 247.383ZM234.107 271.522V257.656L264.028 254.967V253.625L234.107 256.315V249.707L275.092 245.57V259.814L245.171 262.504V264.011L276.115 261.322V271.536H234.107V271.522ZM245.663 232.334C242.868 232.334 240.99 233.516 240.99 235.721C240.99 237.926 242.868 239.002 245.663 239.002C248.457 239.002 250.282 237.873 250.282 235.721C250.282 233.57 248.404 232.334 245.663 232.334ZM275.099 240.775V244.215L264.035 245.344V225.029H275.099V229.811L280.794 229.167V240.131L275.099 240.775Z" fill="#1F2823"/>
<path d="M284.796 270.606V225.726H314.664V235.349H295.807V242.661L310.363 241.425V250.723L295.807 252.117V259.376L316.217 257.171V267.112L284.789 270.606H284.796ZM318.912 272V250.391L312.254 251.141V240.177L318.912 239.427V225.022H329.976V269.849L318.912 272Z" fill="#1F2823"/>
<g clip-path="url(#clip0_136_88)">
<path d="M360 108.007C315.815 108.007 279.993 143.829 279.993 188.013H360V108.007Z" fill="url(#paint0_linear_136_88)"/>
<path d="M280.007 28C235.822 28 200 63.8219 200 108.007C200 152.191 235.822 188.013 280.007 188.013V108.007H360.013C360 63.8219 324.178 28 280.007 28Z" fill="url(#paint1_linear_136_88)"/>
</g>
<defs>
<linearGradient id="paint0_linear_136_88" x1="440.007" y1="147.997" x2="279.993" y2="147.997" gradientUnits="userSpaceOnUse">
<stop stop-color="#21ED82"/>
<stop offset="0.19" stop-color="#23E482"/>
<stop offset="0.49" stop-color="#29CD82"/>
<stop offset="0.86" stop-color="#34A882"/>
<stop offset="1" stop-color="#399982"/>
</linearGradient>
<linearGradient id="paint1_linear_136_88" x1="220.401" y1="109.019" x2="393.252" y2="106.036" gradientUnits="userSpaceOnUse">
<stop stop-color="#21ED82"/>
<stop offset="0.19" stop-color="#23E482"/>
<stop offset="0.49" stop-color="#29CD82"/>
<stop offset="0.86" stop-color="#34A882"/>
<stop offset="1" stop-color="#399982"/>
</linearGradient>
<clipPath id="clip0_136_88">
<rect width="160" height="160" fill="white" transform="translate(200 28)"/>
</clipPath>
</defs>
</svg>
